<svg width="56" height="31" viewBox="0 0 56 31" fill="none" xmlns="http://www.w3.org/2000/svg">
<path d="M45.8351 1.96484H55.937V29.9928H45.8351V1.96484Z" fill="#E1F532"/>
<path d="M26.2929 26.5563C23.8764 26.5563 22.2258 26.5365 21.341 26.4968L20.7666 27.8636C20.5949 28.2465 20.4365 28.6493 20.2912 29.0718C19.9875 29.8906 19.5649 30.2999 19.0235 30.2999C18.7726 30.2999 18.5679 30.2207 18.4095 30.0622C18.251 29.9038 18.1718 29.7387 18.1718 29.567C18.1718 29.2765 18.2972 28.953 18.5481 28.5965C18.9443 28.0418 19.3338 27.3156 19.7168 26.4176C18.5811 26.312 18.0133 25.9818 18.0133 25.4272C18.0133 24.8726 18.3368 24.5953 18.9839 24.5953C19.38 24.5953 19.8422 24.6613 20.3704 24.7934L30.2545 0.786377L43.803 30.082H33.4832L31.8391 26.5563H26.2929ZM21.9749 24.9518C23.2426 25.0575 24.3782 25.1103 25.3818 25.1103H31.1855L26.2335 14.4339L21.9749 24.9518Z" fill="#E1F532"/>
<path d="M23.7331 1.31128C24.2745 1.31128 24.5452 1.59519 24.5452 2.16301C24.5452 2.45353 24.4528 2.79026 24.2679 3.17321C24.0963 3.54295 23.9576 3.84667 23.852 4.08436L13.0964 30.6466L0.0628662 1.52916H10.8779L17.1768 16.3454L21.5939 5.29264C22.0693 4.10417 22.3796 3.24584 22.5249 2.71763C22.6701 2.18942 22.8286 1.82628 23.0002 1.6282C23.1719 1.41692 23.4162 1.31128 23.7331 1.31128Z" fill="#E1F532"/>
</svg>
