<svg width="103" height="76" viewBox="0 0 103 76" fill="none" xmlns="http://www.w3.org/2000/svg">
<circle cx="55.7138" cy="38" r="37.1256" fill="#E1F532"/>
<mask id="mask0_2005_831" style="mask-type:alpha" maskUnits="userSpaceOnUse" x="0" y="10" width="103" height="56">
<path d="M84.3879 12.9315H102.803V64.0254H84.3879V12.9315Z" fill="#E1F532"/>
<path d="M48.763 57.7606C44.3577 57.7606 41.3487 57.7244 39.7358 57.6522L38.6887 60.1437C38.3757 60.8418 38.0869 61.576 37.8221 62.3464C37.2684 63.8389 36.4981 64.5851 35.5111 64.5851C35.0537 64.5851 34.6806 64.4407 34.3917 64.1518C34.1029 63.8629 33.9584 63.562 33.9584 63.2491C33.9584 62.7195 34.1871 62.1297 34.6445 61.4798C35.3667 60.4687 36.0768 59.1447 36.7749 57.5078C34.7047 57.3152 33.6696 56.7134 33.6696 55.7024C33.6696 54.6913 34.2593 54.1858 35.4389 54.1858C36.1611 54.1858 37.0036 54.3061 37.9665 54.5469L55.9848 10.7831L80.6831 64.1879H61.8705L58.8735 57.7606H48.763ZM40.8913 54.8357C43.2023 55.0283 45.2725 55.1246 47.102 55.1246H57.6819L48.6547 35.662L40.8913 54.8357Z" fill="#E1F532"/>
<path d="M44.0967 11.7397C45.0837 11.7397 45.5772 12.2573 45.5772 13.2924C45.5772 13.822 45.4087 14.4359 45.0717 15.134C44.7587 15.808 44.506 16.3617 44.3134 16.795L24.7063 65.2168L0.946777 12.1369H20.6621L32.1447 39.1463L40.197 18.9976C41.0636 16.8311 41.6293 15.2664 41.8941 14.3035C42.1589 13.3406 42.4478 12.6786 42.7607 12.3175C43.0736 11.9323 43.519 11.7397 44.0967 11.7397Z" fill="#E1F532"/>
</mask>
<g mask="url(#mask0_2005_831)">
<circle cx="55.7138" cy="37.9997" r="37.1256" fill="#5541BA"/>
</g>
</svg>
