<svg width="56" height="30" viewBox="0 0 56 30" fill="none" xmlns="http://www.w3.org/2000/svg">
<path d="M45.7723 1.17847H55.8742V29.2064H45.7723V1.17847Z" fill="#5541BA"/>
<path d="M26.23 25.7699C23.8135 25.7699 22.1628 25.7501 21.2781 25.7105L20.7037 27.0772C20.532 27.4601 20.3735 27.8629 20.2283 28.2855C19.9246 29.1042 19.502 29.5136 18.9606 29.5136C18.7097 29.5136 18.505 29.4343 18.3465 29.2759C18.1881 29.1174 18.1088 28.9523 18.1088 28.7807C18.1088 28.4901 18.2343 28.1666 18.4852 27.8101C18.8813 27.2555 19.2709 26.5292 19.6538 25.6312C18.5182 25.5256 17.9504 25.1955 17.9504 24.6408C17.9504 24.0862 18.2739 23.8089 18.921 23.8089C19.3171 23.8089 19.7793 23.8749 20.3075 24.007L30.1916 0L43.7401 29.2957H33.4202L31.7762 25.7699H26.23ZM21.9119 24.1655C23.1796 24.2711 24.3153 24.3239 25.3189 24.3239H31.1225L26.1706 13.6475L21.9119 24.1655Z" fill="#5541BA"/>
<path d="M23.6703 0.524902C24.2117 0.524902 24.4824 0.808813 24.4824 1.37664C24.4824 1.66715 24.3899 2.00388 24.2051 2.38683C24.0334 2.75658 23.8947 3.06029 23.7891 3.29799L13.0335 29.8602L0 0.742788H10.815L17.1139 15.559L21.531 4.50626C22.0064 3.3178 22.3167 2.45946 22.462 1.93125C22.6072 1.40305 22.7657 1.0399 22.9374 0.841826C23.109 0.630543 23.3533 0.524902 23.6703 0.524902Z" fill="#5541BA"/>
</svg>
