<svg width="29" height="28" viewBox="0 0 29 28" fill="none" xmlns="http://www.w3.org/2000/svg">
<circle cx="14.8726" cy="14" r="13.5" fill="white" stroke="#E3E3E3"/>
<path d="M17.9161 7.91309H11.8291C10.1491 7.91309 8.78564 9.27048 8.78564 10.9444V14.5844V15.1931C8.78564 16.867 10.1491 18.2244 11.8291 18.2244H12.7422C12.9065 18.2244 13.1256 18.334 13.2291 18.4679L14.1422 19.6792C14.5439 20.2148 15.2013 20.2148 15.603 19.6792L16.5161 18.4679C16.6317 18.3157 16.8143 18.2244 17.003 18.2244H17.9161C19.5961 18.2244 20.9596 16.867 20.9596 15.1931V10.9444C20.9596 9.27048 19.5961 7.91309 17.9161 7.91309ZM12.4378 14C12.0969 14 11.8291 13.7261 11.8291 13.3913C11.8291 13.0566 12.103 12.7827 12.4378 12.7827C12.7726 12.7827 13.0465 13.0566 13.0465 13.3913C13.0465 13.7261 12.7787 14 12.4378 14ZM14.8726 14C14.5317 14 14.2639 13.7261 14.2639 13.3913C14.2639 13.0566 14.5378 12.7827 14.8726 12.7827C15.2074 12.7827 15.4813 13.0566 15.4813 13.3913C15.4813 13.7261 15.2135 14 14.8726 14ZM17.3074 14C16.9665 14 16.6987 13.7261 16.6987 13.3913C16.6987 13.0566 16.9726 12.7827 17.3074 12.7827C17.6422 12.7827 17.9161 13.0566 17.9161 13.3913C17.9161 13.7261 17.6483 14 17.3074 14Z" fill="#5541BA"/>
</svg>
